<?xml version="1.0" encoding="iso-8859-1"?>
<!-- Uploaded to: SVG Repo, www.svgrepo.com, Generator: SVG Repo Mixer Tools -->
<svg fill="#000000" height="800px" width="800px" version="1.1" id="Layer_1" xmlns="http://www.w3.org/2000/svg" xmlns:xlink="http://www.w3.org/1999/xlink" 
	 viewBox="0 0 512 512" xml:space="preserve">
<g>
	<g>
		<path d="M437.019,74.981C388.667,26.628,324.38,0,256,0S123.333,26.628,74.981,74.981C26.628,123.332,0,187.62,0,256
			s26.628,132.668,74.981,181.019C123.333,485.372,187.62,512,256,512s132.667-26.628,181.019-74.981
			C485.372,388.668,512,324.38,512,256S485.372,123.332,437.019,74.981z M256,495.66c-132.149,0-239.66-107.51-239.66-239.66
			S123.851,16.34,256,16.34S495.66,123.851,495.66,256S388.149,495.66,256,495.66z"/>
	</g>
</g>
<g>
	<g>
		<path d="M357.41,211.607c-7.865-0.687-15.709,0.425-23.067,3.279l-49.903,19.546l35.454-40.23
			c5.21-5.953,8.896-12.862,10.951-20.533c7.337-27.384-8.972-55.632-36.355-62.969c-4.364-1.17-8.85-1.763-13.332-1.763
			c-8.884,0-17.48,2.266-25.159,6.596c-7.679-4.33-16.274-6.596-25.159-6.596c-4.482,0-8.968,0.593-13.332,1.763
			c-27.383,7.338-43.692,35.586-36.355,62.971c2.056,7.671,5.741,14.579,10.969,20.555l35.435,40.208l-49.927-19.557
			c-7.328-2.842-15.177-3.957-23.041-3.268c-28.244,2.471-49.211,27.457-46.739,55.699c1.181,13.497,7.55,25.8,17.71,34.515
			c-2.181,13.206,0.848,26.725,8.619,37.823c9.612,13.73,25.371,21.927,42.153,21.928c10.579,0,20.763-3.217,29.453-9.302
			c6.506-4.555,11.737-10.38,15.563-17.339l26.481-48.547v23.561c0,29.834,4.515,59.244,13.418,87.41
			c1.101,3.483,4.319,5.709,7.788,5.709c0.816,0,1.646-0.123,2.465-0.382c4.302-1.361,6.688-5.95,5.328-10.253
			c-8.4-26.572-12.658-54.323-12.658-82.484v-23.56l26.493,48.571c3.813,6.934,9.045,12.76,15.55,17.314
			c8.691,6.085,18.875,9.302,29.452,9.302c16.782,0,32.54-8.197,42.154-21.928c7.771-11.098,10.8-24.617,8.619-37.823
			c10.159-8.715,16.529-21.018,17.71-34.515C406.62,239.066,385.651,214.079,357.41,211.607z M207.017,327.085
			c-2.597,4.723-6.165,8.694-10.603,11.802c-5.93,4.153-12.872,6.347-20.078,6.347c-11.458,0-22.213-5.593-28.771-14.96
			c-6.04-8.627-7.879-19.403-5.046-29.564c0.938-3.367-0.368-6.959-3.252-8.935c-8.702-5.963-14.221-15.399-15.138-25.892
			c-0.817-9.333,2.05-18.424,8.071-25.601c6.022-7.177,14.479-11.579,23.811-12.395c1.027-0.09,2.068-0.136,3.094-0.136
			c4.332,0,8.577,0.794,12.591,2.351l72.692,28.473L207.017,327.085z M256,241.99l-51.599-58.549c-3.55-4.056-6.061-8.767-7.464-14
			c-5.006-18.681,6.121-37.951,24.803-42.958c2.985-0.8,6.048-1.205,9.102-1.205c7.336,0,14.393,2.273,20.404,6.575
			c2.842,2.034,6.666,2.034,9.509,0c6.012-4.302,13.068-6.575,20.404-6.575c3.055,0,6.117,0.405,9.102,1.206
			c18.68,5.006,29.806,24.275,24.803,42.957c-1.403,5.234-3.914,9.945-7.446,13.98L256,241.99z M387.869,265.884
			c-0.917,10.492-6.435,19.928-15.138,25.891c-2.884,1.976-4.191,5.568-3.252,8.935c2.835,10.162,0.995,20.936-5.046,29.564
			c-6.559,9.367-17.314,14.96-28.769,14.96c-7.206,0-14.15-2.195-20.08-6.348c-4.438-3.108-8.007-7.079-10.591-11.777
			l-37.384-68.536l72.667-28.462c4.996-1.937,10.341-2.696,15.71-2.224c9.333,0.817,17.789,5.219,23.811,12.395
			C385.819,247.458,388.686,256.551,387.869,265.884z"/>
	</g>
</g>
<g>
	<g>
		<path d="M256,32.681C132.862,32.681,32.681,132.861,32.681,256c0,53.286,19.16,104.921,53.948,145.392
			c2.941,3.423,8.102,3.81,11.521,0.869c3.423-2.941,3.812-8.101,0.87-11.522c-32.242-37.508-50-85.359-50-134.739
			c0-114.128,92.85-206.979,206.979-206.979S462.979,141.872,462.979,256S370.129,462.979,256,462.979
			c-49.38,0-97.232-17.757-134.741-50c-3.421-2.94-8.579-2.552-11.521,0.869c-2.941,3.422-2.552,8.58,0.87,11.522
			c40.471,34.79,92.106,53.948,145.392,53.948c123.138,0,223.319-100.18,223.319-223.319S379.138,32.681,256,32.681z"/>
	</g>
</g>
<g>
	<g>
		<circle cx="256" cy="73.532" r="8.17"/>
	</g>
</g>
<g>
	<g>
		<circle cx="208.776" cy="79.752" r="8.17"/>
	</g>
</g>
<g>
	<g>
		<circle cx="164.766" cy="97.977" r="8.17"/>
	</g>
</g>
<g>
	<g>
		<circle cx="126.976" cy="126.976" r="8.17"/>
	</g>
</g>
<g>
	<g>
		<circle cx="97.977" cy="164.766" r="8.17"/>
	</g>
</g>
<g>
	<g>
		<circle cx="79.752" cy="208.776" r="8.17"/>
	</g>
</g>
<g>
	<g>
		<circle cx="73.532" cy="256" r="8.17"/>
	</g>
</g>
<g>
	<g>
		<circle cx="79.752" cy="303.224" r="8.17"/>
	</g>
</g>
<g>
	<g>
		<circle cx="97.977" cy="347.234" r="8.17"/>
	</g>
</g>
<g>
	<g>
		<circle cx="126.976" cy="385.024" r="8.17"/>
	</g>
</g>
<g>
	<g>
		<circle cx="164.766" cy="414.023" r="8.17"/>
	</g>
</g>
<g>
	<g>
		<circle cx="208.776" cy="432.248" r="8.17"/>
	</g>
</g>
<g>
	<g>
		<circle cx="256" cy="438.468" r="8.17"/>
	</g>
</g>
<g>
	<g>
		<circle cx="303.224" cy="432.248" r="8.17"/>
	</g>
</g>
<g>
	<g>
		<circle cx="347.234" cy="414.023" r="8.17"/>
	</g>
</g>
<g>
	<g>
		<circle cx="385.024" cy="385.024" r="8.17"/>
	</g>
</g>
<g>
	<g>
		<circle cx="414.023" cy="347.234" r="8.17"/>
	</g>
</g>
<g>
	<g>
		<circle cx="432.248" cy="303.224" r="8.17"/>
	</g>
</g>
<g>
	<g>
		<circle cx="438.468" cy="256" r="8.17"/>
	</g>
</g>
<g>
	<g>
		<circle cx="432.248" cy="208.776" r="8.17"/>
	</g>
</g>
<g>
	<g>
		<circle cx="414.023" cy="164.766" r="8.17"/>
	</g>
</g>
<g>
	<g>
		<circle cx="385.024" cy="126.976" r="8.17"/>
	</g>
</g>
<g>
	<g>
		<circle cx="347.234" cy="97.977" r="8.17"/>
	</g>
</g>
<g>
	<g>
		<circle cx="303.224" cy="79.752" r="8.17"/>
	</g>
</g>
</svg>